<svg width="65" height="19" viewBox="0 0 65 19" fill="none" xmlns="http://www.w3.org/2000/svg">
<path d="M20.992 18V7.504C20.992 6.32 20.6987 5.39733 20.112 4.736C19.5253 4.064 18.7307 3.728 17.728 3.728C17.1093 3.728 16.5547 3.872 16.064 4.16C15.5733 4.43733 15.184 4.85333 14.896 5.408C14.608 5.952 14.464 6.60267 14.464 7.36L12.752 6.352C12.7413 5.15733 13.008 4.10667 13.552 3.2C14.1067 2.28267 14.8533 1.568 15.792 1.056C16.7307 0.544 17.776 0.288 18.928 0.288C20.8373 0.288 22.2987 0.864 23.312 2.016C24.336 3.15733 24.848 4.66133 24.848 6.528V18H20.992ZM0.208 18V0.719999H3.616V6.08H4.096V18H0.208ZM10.624 18V7.552C10.624 6.34667 10.3307 5.408 9.744 4.736C9.15733 4.064 8.35733 3.728 7.344 3.728C6.36267 3.728 5.57333 4.064 4.976 4.736C4.38933 5.408 4.096 6.28267 4.096 7.36L2.368 6.208C2.368 5.088 2.64533 4.08 3.2 3.184C3.75467 2.288 4.50133 1.584 5.44 1.072C6.38933 0.549333 7.45067 0.288 8.624 0.288C9.91467 0.288 10.992 0.565333 11.856 1.12C12.7307 1.664 13.3813 2.41067 13.808 3.36C14.2453 4.29867 14.464 5.36 14.464 6.544V18H10.624ZM36.372 18.48C34.644 18.48 33.1347 18.0907 31.844 17.312C30.5533 16.5333 29.5507 15.4613 28.836 14.096C28.132 12.72 27.78 11.1413 27.78 9.36C27.78 7.54667 28.1427 5.95733 28.868 4.592C29.5933 3.22667 30.6013 2.16 31.892 1.392C33.1827 0.623999 34.676 0.24 36.372 0.24C38.1107 0.24 39.6253 0.629333 40.916 1.408C42.2067 2.18667 43.2093 3.264 43.924 4.64C44.6387 6.00533 44.996 7.57867 44.996 9.36C44.996 11.152 44.6333 12.736 43.908 14.112C43.1933 15.4773 42.1907 16.5493 40.9 17.328C39.6093 18.096 38.1 18.48 36.372 18.48ZM36.372 14.864C37.908 14.864 39.0493 14.352 39.796 13.328C40.5427 12.304 40.916 10.9813 40.916 9.36C40.916 7.68533 40.5373 6.352 39.78 5.36C39.0227 4.35733 37.8867 3.856 36.372 3.856C35.3373 3.856 34.484 4.09067 33.812 4.56C33.1507 5.01867 32.66 5.664 32.34 6.496C32.02 7.31733 31.86 8.272 31.86 9.36C31.86 11.0347 32.2387 12.3733 32.996 13.376C33.764 14.368 34.8893 14.864 36.372 14.864ZM56.1533 18.48C54.4253 18.48 52.9159 18.0907 51.6253 17.312C50.3346 16.5333 49.3319 15.4613 48.6173 14.096C47.9133 12.72 47.5613 11.1413 47.5613 9.36C47.5613 7.54667 47.9239 5.95733 48.6493 4.592C49.3746 3.22667 50.3826 2.16 51.6733 1.392C52.9639 0.623999 54.4573 0.24 56.1533 0.24C57.8919 0.24 59.4066 0.629333 60.6973 1.408C61.9879 2.18667 62.9906 3.264 63.7053 4.64C64.4199 6.00533 64.7773 7.57867 64.7773 9.36C64.7773 11.152 64.4146 12.736 63.6893 14.112C62.9746 15.4773 61.9719 16.5493 60.6813 17.328C59.3906 18.096 57.8813 18.48 56.1533 18.48ZM56.1533 14.864C57.6893 14.864 58.8306 14.352 59.5773 13.328C60.3239 12.304 60.6973 10.9813 60.6973 9.36C60.6973 7.68533 60.3186 6.352 59.5613 5.36C58.8039 4.35733 57.6679 3.856 56.1533 3.856C55.1186 3.856 54.2653 4.09067 53.5933 4.56C52.9319 5.01867 52.4413 5.664 52.1213 6.496C51.8013 7.31733 51.6413 8.272 51.6413 9.36C51.6413 11.0347 52.0199 12.3733 52.7773 13.376C53.5453 14.368 54.6706 14.864 56.1533 14.864Z" fill="#FF00C7"/>
</svg>
