<svg width="35" height="35" viewBox="0 0 35 35" fill="none" xmlns="http://www.w3.org/2000/svg">
<path d="M13.125 6.5625C8.29281 6.5625 4.375 13.125 4.375 13.125C4.375 13.125 8.29281 19.6875 13.125 19.6875C17.9572 19.6875 21.875 13.125 21.875 13.125C21.875 13.125 17.9572 6.5625 13.125 6.5625ZM13.125 17.5C10.7089 17.5 8.75 15.5411 8.75 13.125C8.75 10.7089 10.7089 8.75 13.125 8.75C15.5411 8.75 17.5 10.7089 17.5 13.125C17.5 15.5411 15.5411 17.5 13.125 17.5Z" fill="#FF00C7"/>
<path d="M13.125 15.3125C14.3331 15.3125 15.3125 14.3331 15.3125 13.125C15.3125 11.9169 14.3331 10.9375 13.125 10.9375C11.9169 10.9375 10.9375 11.9169 10.9375 13.125C10.9375 14.3331 11.9169 15.3125 13.125 15.3125Z" fill="#FF00C7"/>
<path d="M13.125 26.25C16.3559 26.25 19.3091 25.0775 21.595 23.1427L23.4445 24.9922C23.2345 25.4363 23.1 25.9044 23.1011 26.3823C23.1 27.218 23.4238 28.0645 24.0625 28.7022L29.2666 33.9062C29.9042 34.545 30.7508 34.8687 31.5864 34.8677C32.422 34.8687 33.2686 34.545 33.9063 33.9062C34.545 33.2686 34.8688 32.422 34.8677 31.5864C34.8688 30.7508 34.545 29.9042 33.9063 29.2666L28.7022 24.0625C28.0645 23.4238 27.218 23.1 26.3823 23.1011C25.9044 23.1 25.4363 23.2356 24.9922 23.4445L23.1416 21.5939C25.0775 19.3091 26.25 16.3559 26.25 13.125C26.2489 5.87563 20.3744 0.00109375 13.125 0C5.87563 0.00109375 0.00109375 5.87563 0 13.125C0.00109375 20.3744 5.87563 26.2489 13.125 26.25ZM25.6091 25.6091C25.8256 25.3936 26.0991 25.2897 26.3823 25.2886C26.6656 25.2897 26.9391 25.3936 27.1556 25.6091L32.3597 30.8131C32.5752 31.0297 32.6791 31.3031 32.6802 31.5864C32.6791 31.8697 32.5752 32.1431 32.3597 32.3597C32.1431 32.5752 31.8697 32.6791 31.5864 32.6802C31.3031 32.6791 31.0297 32.5752 30.8131 32.3597L25.6091 27.1556C25.3936 26.9391 25.2897 26.6656 25.2886 26.3823C25.2897 26.0991 25.3936 25.8256 25.6091 25.6091L24.8358 24.8358L25.6091 25.6091ZM5.39109 5.39109C7.37406 3.41031 10.1008 2.1875 13.125 2.1875C16.1492 2.1875 18.8759 3.41031 20.8589 5.39109C22.8397 7.37406 24.0625 10.1008 24.0625 13.125C24.0625 16.1492 22.8397 18.8759 20.8589 20.8589C18.8759 22.8397 16.1492 24.0625 13.125 24.0625C10.1008 24.0625 7.37406 22.8397 5.39109 20.8589C3.41031 18.8759 2.1875 16.1492 2.1875 13.125C2.1875 10.1008 3.41031 7.37406 5.39109 5.39109Z" fill="white"/>
</svg>
