<svg width="30" height="30" viewBox="0 0 30 30" fill="none" xmlns="http://www.w3.org/2000/svg">
<path fill-rule="evenodd" clip-rule="evenodd" d="M13.7193 1.59297C14.4403 0.918229 15.5609 0.918228 16.2819 1.59297L19.1888 4.31376C19.2994 4.41727 19.4439 4.4771 19.5953 4.4821L23.5746 4.61376C24.5615 4.64641 25.354 5.43885 25.3866 6.42573L25.5183 10.4052C25.5233 10.5566 25.5831 10.701 25.6866 10.8116L28.4074 13.7186C29.0821 14.4394 29.0821 15.5602 28.4074 16.2811L25.6866 19.1881C25.5831 19.2987 25.5233 19.4431 25.5183 19.5944L25.3866 23.5739C25.354 24.5608 24.5615 25.3532 23.5746 25.3859L19.5953 25.5176C19.4439 25.5226 19.2994 25.5823 19.1888 25.6859L16.2819 28.4067C15.5609 29.0814 14.4403 29.0814 13.7193 28.4067L10.8123 25.6859C10.7017 25.5823 10.5573 25.5226 10.4059 25.5176L6.42646 25.3859C5.43959 25.3532 4.64715 24.5608 4.6145 23.5739L4.48284 19.5944C4.47783 19.4431 4.418 19.2987 4.31449 19.1881L1.5937 16.2811C0.918962 15.5602 0.918961 14.4394 1.5937 13.7186L4.31449 10.8116C4.418 10.701 4.47783 10.5566 4.48284 10.4052L4.6145 6.42573C4.64715 5.43885 5.43959 4.64641 6.42646 4.61376L10.4059 4.4821C10.5573 4.4771 10.7017 4.41727 10.8123 4.31376L13.7193 1.59297ZM15.4276 2.5056C15.1874 2.28068 14.8138 2.28068 14.5735 2.5056L11.6665 5.22638C11.3347 5.53692 10.9014 5.71638 10.4472 5.73142L6.4678 5.86308C6.13884 5.87396 5.8747 6.13811 5.86381 6.46707L5.73215 10.4465C5.71713 10.9007 5.53765 11.334 5.22711 11.6658L2.50634 14.5727C2.28141 14.8131 2.28141 15.1866 2.50634 15.4269L5.22711 18.3339C5.53765 18.6657 5.71713 19.0989 5.73215 19.5532L5.86381 23.5326C5.8747 23.8616 6.13884 24.1257 6.4678 24.1366L10.4472 24.2682C10.9014 24.2833 11.3347 24.4627 11.6665 24.7733L14.5735 27.4941C14.8138 27.7189 15.1874 27.7189 15.4276 27.4941L18.3346 24.7733C18.6664 24.4627 19.0998 24.2833 19.5539 24.2682L23.5334 24.1366C23.8623 24.1257 24.1264 23.8616 24.1372 23.5326L24.269 19.5532C24.284 19.0989 24.4635 18.6657 24.774 18.3339L27.4948 15.4269C27.7198 15.1866 27.7198 14.8131 27.4948 14.5727L24.774 11.6658C24.4635 11.334 24.284 10.9007 24.269 10.4465L24.1372 6.46707C24.1264 6.13811 23.8623 5.87396 23.5334 5.86308L19.5539 5.73142C19.0998 5.71638 18.6664 5.53692 18.3346 5.22638L15.4276 2.5056Z" fill="#FF00C7"/>
<path fill-rule="evenodd" clip-rule="evenodd" d="M12.7489 8.31829C14.8639 9.7846 16.25 12.23 16.25 15C16.25 17.77 14.8639 20.2154 12.7489 21.6817C13.2699 21.808 13.8144 21.875 14.375 21.875C18.172 21.875 21.25 18.797 21.25 15C21.25 11.203 18.172 8.125 14.375 8.125C13.8144 8.125 13.2699 8.19199 12.7489 8.31829ZM10.9893 7.61203C12.0208 7.13863 13.168 6.875 14.375 6.875C18.8624 6.875 22.5 10.5127 22.5 15C22.5 19.4874 18.8624 23.125 14.375 23.125C13.168 23.125 12.0208 22.8614 10.9893 22.388C10.7673 22.2861 10.625 22.0642 10.625 21.82C10.625 21.5756 10.7673 21.3537 10.9893 21.2519C13.3575 20.165 15 17.7736 15 15C15 12.2263 13.3575 9.83499 10.9893 8.74809C10.7673 8.64619 10.625 8.42431 10.625 8.18005C10.625 7.93579 10.7673 7.71391 10.9893 7.61203Z" fill="#FF00C7"/>
</svg>
