<svg width="50" height="50" viewBox="0 0 50 50" fill="none" xmlns="http://www.w3.org/2000/svg">
<g clip-path="url(#clip0_1527_842)">
<path d="M25 50C20.0555 50 15.222 48.5338 11.1108 45.7867C6.99952 43.0397 3.79521 39.1352 1.90302 34.5671C0.0108321 29.9989 -0.484251 24.9723 0.480379 20.1227C1.44501 15.2732 3.82603 10.8187 7.32234 7.32234C10.8187 3.82603 15.2732 1.44501 20.1227 0.480379C24.9723 -0.484251 29.9989 0.0108321 34.5671 1.90302C39.1352 3.79521 43.0397 6.99952 45.7867 11.1108C48.5338 15.222 50 20.0555 50 25C50 31.6304 47.3661 37.9893 42.6777 42.6777C37.9893 47.3661 31.6304 50 25 50V50ZM25 3.84616C20.8162 3.84616 16.7263 5.08681 13.2476 7.41123C9.76883 9.73564 7.05749 13.0394 5.4564 16.9048C3.85532 20.7701 3.4364 25.0235 4.25263 29.1269C5.06885 33.2304 7.08356 36.9996 10.042 39.958C13.0004 42.9164 16.7697 44.9312 20.8731 45.7474C24.9765 46.5636 29.2299 46.1447 33.0952 44.5436C36.9606 42.9425 40.2644 40.2312 42.5888 36.7525C44.9132 33.2737 46.1538 29.1838 46.1538 25C46.1538 19.3897 43.9251 14.0091 39.958 10.042C35.9909 6.07487 30.6104 3.84616 25 3.84616Z" fill="#FF00C7"/>
<path d="M24.9999 26.9232C23.0982 26.9232 21.2391 26.3592 19.6579 25.3027C18.0766 24.2461 16.8442 22.7444 16.1165 20.9874C15.3887 19.2304 15.1983 17.2971 15.5693 15.4319C15.9403 13.5667 16.8561 11.8534 18.2008 10.5087C19.5455 9.16393 21.2588 8.24816 23.124 7.87714C24.9892 7.50613 26.9226 7.69655 28.6796 8.42431C30.4365 9.15208 31.9383 10.3845 32.9948 11.9657C34.0514 13.547 34.6153 15.406 34.6153 17.3078C34.6153 19.8579 33.6022 22.3036 31.799 24.1069C29.9958 25.9101 27.5501 26.9232 24.9999 26.9232ZM24.9999 11.5385C23.8589 11.5385 22.7434 11.8769 21.7947 12.5108C20.846 13.1448 20.1065 14.0458 19.6698 15.1C19.2332 16.1542 19.1189 17.3142 19.3415 18.4333C19.5641 19.5524 20.1136 20.5804 20.9204 21.3872C21.7273 22.1941 22.7553 22.7435 23.8744 22.9661C24.9935 23.1888 26.1535 23.0745 27.2077 22.6378C28.2619 22.2012 29.1629 21.4617 29.7969 20.513C30.4308 19.5642 30.7691 18.4488 30.7691 17.3078C30.7691 15.7777 30.1613 14.3102 29.0794 13.2283C27.9974 12.1464 26.53 11.5385 24.9999 11.5385Z" fill="#FF00C7"/>
<path d="M43.3655 40.3842C43.0986 40.386 42.8342 40.3322 42.5892 40.2263C42.3442 40.1203 42.1239 39.9646 41.9424 39.7688C39.9012 37.5423 37.4201 35.7638 34.6561 34.5456C31.8921 33.3274 28.9053 32.6962 25.8847 32.6919H24.1155C18.4851 32.6798 13.071 34.8592 9.01935 38.7688C8.64499 39.0777 8.16769 39.2337 7.68317 39.2053C7.19865 39.177 6.74276 38.9665 6.40695 38.6161C6.07114 38.2657 5.88024 37.8013 5.87256 37.316C5.86487 36.8307 6.04096 36.3605 6.3655 35.9996C11.1268 31.3976 17.4937 28.8315 24.1155 28.8458H25.8847C29.4351 28.8538 32.9456 29.596 36.1954 31.0256C39.4453 32.4553 42.3644 34.5416 44.7693 37.1535C45.0234 37.4274 45.1922 37.7695 45.255 38.1378C45.3179 38.5062 45.272 38.8848 45.1231 39.2276C44.9742 39.5703 44.7286 39.8622 44.4165 40.0676C44.1044 40.273 43.7392 40.383 43.3655 40.3842V40.3842Z" fill="#FF00C7"/>
</g>
<defs>
<clipPath id="clip0_1527_842">
<rect width="50" height="50" fill="white"/>
</clipPath>
</defs>
</svg>
